<svg width="64" height="64" viewBox="0 0 64 64" fill="none" xmlns="http://www.w3.org/2000/svg">
<path d="M32 0C38.1187 0 43.8364 1.71731 48.6972 4.69623L45.0409 8.35251C41.175 6.21604 36.7295 5 32 5C17.0883 5 5 17.0883 5 32C5 46.9117 17.0883 59 32 59C46.9117 59 59 46.9117 59 32C59 27.2705 57.784 22.825 55.6475 18.9591L59.3038 15.3028C62.2827 20.1637 64 25.8813 64 32C64 49.6731 49.6731 64 32 64C14.3269 64 0 49.6731 0 32C0 14.3269 14.3269 0 32 0Z" fill="#2E7F3C"/>
<path d="M64 6.36397L54.182 16.182H50.6464L33.4165 33.4119C33.0544 33.7752 32.5535 34 32 34C30.8954 34 30 33.1046 30 32C30 31.4477 30.2239 30.9477 30.5858 30.5858L47.818 13.3535V9.81802L57.636 0L59 5.00001L64 6.36397Z" fill="#2E7F3C"/>
<path d="M42.8889 14.04C39.7139 12.1109 35.9867 11 32 11C20.402 11 11 20.402 11 32C11 43.598 20.402 53 32 53C43.598 53 53 43.598 53 32C53 28.0133 51.8891 24.2862 49.96 21.1111L46.2852 24.7859C47.382 26.9535 48 29.4046 48 32C48 40.8366 40.8366 48 32 48C23.1634 48 16 40.8366 16 32C16 23.1634 23.1634 16 32 16C34.5954 16 37.0465 16.618 39.2141 17.7148L42.8889 14.04Z" fill="#2E7F3C"/>
<path d="M32 22C32.8958 22 33.7641 22.1178 34.5902 22.3387L28.4696 28.4593C27.5618 29.3645 27 30.6167 27 32C27 34.7614 29.2386 37 32 37C33.3807 37 34.6307 36.4404 35.5355 35.5355L41.6613 29.4098C41.8822 30.2359 42 31.1042 42 32C42 37.5228 37.5228 42 32 42C26.4772 42 22 37.5228 22 32C22 26.4772 26.4772 22 32 22Z" fill="#2E7F3C"/>
</svg>
