<svg width="64" height="64" viewBox="0 0 64 64" fill="none" xmlns="http://www.w3.org/2000/svg">
<path d="M43.7709 61.0697L24.2361 32L43.7706 2.93095C43.9171 2.6529 44 2.33613 44 2C44 0.895432 43.1046 0 42 0C41.2018 0 40.5129 0.467548 40.1921 1.1437L20.2288 31.0701C20.0957 31.3232 20.0153 31.6082 20.002 31.9107C20.0007 31.9405 20 31.9702 20 32C20 32.0121 20.0001 32.0241 20.0003 32.0361C20.006 32.3587 20.0881 32.6626 20.2292 32.9305L40.1917 62.8555C40.5124 63.5321 41.2015 64 42 64C43.1046 64 44 63.1046 44 62C44 61.6641 43.9172 61.3476 43.7709 61.0697Z" fill="white"/>
</svg>
