<svg width="64" height="64" viewBox="0 0 64 64" fill="none" xmlns="http://www.w3.org/2000/svg">
<path d="M50.1213 25.1213C51.2929 23.9497 51.2929 22.0503 50.1213 20.8787C48.9497 19.7071 47.0502 19.7071 45.8787 20.8787L26.9014 39.856L18.018 31.7802C16.792 30.6657 14.8947 30.756 13.7802 31.982C12.6656 33.208 12.756 35.1053 13.982 36.2198L24.982 46.2198C26.1669 47.297 27.989 47.2537 29.1213 46.1213L50.1213 25.1213Z" fill="#2E7F3C"/>
<path fill-rule="evenodd" clip-rule="evenodd" d="M32 64C49.6731 64 64 49.6731 64 32C64 14.3269 49.6731 0 32 0C14.3269 0 0 14.3269 0 32C0 49.6731 14.3269 64 32 64ZM58 32C58 46.3594 46.3594 58 32 58C17.6406 58 6 46.3594 6 32C6 17.6406 17.6406 6 32 6C46.3594 6 58 17.6406 58 32Z" fill="#2E7F3C"/>
</svg>
