<svg width="64" height="64" viewBox="0 0 64 64" fill="none" xmlns="http://www.w3.org/2000/svg">
<path d="M10.2541 1.76885C9.16742 0.676313 7.66269 0 6 0C2.68629 0 0 2.68629 0 6C0 7.65686 0.671577 9.15686 1.75737 10.2427L23.5147 32L1.76699 53.7478C0.675544 54.8343 0 56.3383 0 58C0 61.3137 2.68629 64 6 64C7.65685 64 9.15685 63.3284 10.2426 62.2427L32 40.4853L53.7574 62.2427C54.8431 63.3284 56.3432 64 58 64C61.3137 64 64 61.3137 64 58C64 56.3374 63.3238 54.8328 62.2314 53.7461L40.4853 32L62.2426 10.2427C63.3284 9.15688 64 7.65686 64 6C64 2.68629 61.3137 0 58 0C56.3383 0 54.8343 0.675544 53.7478 1.76699L32 23.5147L10.2541 1.76885Z" fill="#155724"/>
</svg>
