<svg width="64" height="64" viewBox="0 0 64 64" fill="none" xmlns="http://www.w3.org/2000/svg">
<path d="M63.0912 13.151C63.6518 12.6059 64 11.8436 64 11C64 9.34315 62.6569 8 61 8C60.1846 8 59.4451 8.32534 58.9044 8.85329L24 49L5.00953 29.7725C4.47764 29.2923 3.77296 29 3 29C1.34315 29 0 30.3431 0 32C0 32.8934 0.390559 33.6957 1.01026 34.2453L21.9909 55.2279C22.5085 55.695 23.1897 55.9842 23.9382 55.9994C23.9655 55.9999 23.9928 56.0001 24.02 55.9999C24.8058 55.9948 25.5199 55.6876 26.0519 55.1885C26.0666 55.1748 26.0811 55.1609 26.0954 55.1469L63.0912 13.151Z" fill="#46AD51"/>
</svg>
