<svg width="64" height="64" viewBox="0 0 64 64" fill="none" xmlns="http://www.w3.org/2000/svg">
<path fill-rule="evenodd" clip-rule="evenodd" d="M20.5 36.76C20.0933 36.3438 19.7126 35.903 19.36 35.44C18.2809 34.0605 17.4424 32.5087 16.88 30.85C15.9142 28.0563 15.7412 25.0496 16.3802 22.1636C17.0192 19.2775 18.4452 16.6249 20.5 14.5L32 3L38.36 9.37L41.9 12.9L43.5 14.5C43.9067 14.9162 44.2874 15.357 44.64 15.82C45.7191 17.1995 46.5575 18.7513 47.12 20.41C48.0858 23.2037 48.2588 26.2104 47.6198 29.0964C46.9808 31.9825 45.5548 34.6351 43.5 36.76L32 48.26L20.5 36.76ZM42.4036 29.3499C42.9516 27.8233 43.1553 26.1945 43 24.58L31 36.58L29.17 38.36L32 41.19L39.83 33.41C40.9767 32.2629 41.8555 30.8765 42.4036 29.3499ZM39.83 17.85L38.42 16.44L38.23 16.57L22.94 31.86C23.3158 32.4167 23.7444 32.9357 24.22 33.41L25.64 34.83L25.77 34.69L41.11 19.4C40.7342 18.8433 40.3056 18.3242 39.83 17.85ZM32 10.07L24.22 17.85C23.0751 18.998 22.1981 20.3848 21.6518 21.9114C21.1055 23.4379 20.9034 25.0663 21.06 26.68L33.06 14.68L34.83 12.9L32 10.07Z" fill="white"/>
<path d="M32 55L43.5 43.5C45.6767 41.2568 47.1444 38.4222 47.72 35.35C47.9047 36.3394 47.9984 37.3435 48 38.35V39C47.8431 42.9345 46.2409 46.673 43.5 49.5L32 61L20.5 49.5C17.7636 46.678 16.1617 42.9475 16 39.02V38.37C16.0016 37.3635 16.0953 36.3594 16.28 35.37C16.8593 38.4351 18.3268 41.2623 20.5 43.5L32 55Z" fill="white"/>
</svg>
