<svg width="64" height="64" viewBox="0 0 64 64" fill="none" xmlns="http://www.w3.org/2000/svg">
<path fill-rule="evenodd" clip-rule="evenodd" d="M8.00647 17.7434C8.00217 17.8284 8 17.9139 8 18V46C8 46.0861 8.00217 46.1716 8.00647 46.2566C8.00218 46.3372 8 46.4183 8 46.5C8 48.9853 10.0147 51 12.5 51C12.5817 51 12.6628 50.9978 12.7434 50.9935C12.8284 50.9978 12.9139 51 13 51H51C51.0861 51 51.1716 50.9978 51.2566 50.9935C51.3372 50.9978 51.4183 51 51.5 51C53.9853 51 56 48.9853 56 46.5C56 46.4183 55.9978 46.3372 55.9935 46.2566C55.9978 46.1716 56 46.0861 56 46V18C56 17.9139 55.9978 17.8284 55.9935 17.7434C55.9978 17.6628 56 17.5817 56 17.5C56 15.0147 53.9853 13 51.5 13C51.4183 13 51.3372 13.0022 51.2566 13.0065C51.1716 13.0022 51.0861 13 51 13H13C12.9139 13 12.8284 13.0022 12.7434 13.0065C12.6628 13.0022 12.5817 13 12.5 13C10.0147 13 8 15.0147 8 17.5C8 17.5817 8.00218 17.6628 8.00647 17.7434ZM13 18V23L32 34L51 23V18L32 29L13 18Z" fill="#2E7F3C"/>
</svg>
