<svg width="64" height="64" viewBox="0 0 64 64" fill="none" xmlns="http://www.w3.org/2000/svg">
<path d="M48 51.7647C48 49.6855 49.6855 48 51.7647 48H60.2353C62.3145 48 64 49.6855 64 51.7647V60.2353C64 62.3145 62.3145 64 60.2353 64H51.7647C49.6855 64 48 62.3145 48 60.2353V51.7647Z" fill="white"/>
<path d="M24 51.7647C24 49.6855 25.6855 48 27.7647 48H36.2353C38.3145 48 40 49.6855 40 51.7647V60.2353C40 62.3145 38.3145 64 36.2353 64H27.7647C25.6855 64 24 62.3145 24 60.2353V51.7647Z" fill="white"/>
<path d="M0 51.7647C0 49.6855 1.68551 48 3.76469 48H12.2353C14.3145 48 16 49.6855 16 51.7647V60.2353C16 62.3145 14.3145 64 12.2353 64H3.76469C1.68551 64 0 62.3145 0 60.2353V51.7647Z" fill="white"/>
<path d="M24 27.7647C24 25.6855 25.6855 24 27.7647 24H36.2353C38.3145 24 40 25.6855 40 27.7647V36.2353C40 38.3145 38.3145 40 36.2353 40H27.7647C25.6855 40 24 38.3145 24 36.2353V27.7647Z" fill="white"/>
<path d="M48 27.7647C48 25.6855 49.6855 24 51.7647 24H60.2353C62.3145 24 64 25.6855 64 27.7647V36.2353C64 38.3145 62.3145 40 60.2353 40H51.7647C49.6855 40 48 38.3145 48 36.2353V27.7647Z" fill="white"/>
<path d="M0 27.7647C0 25.6855 1.68551 24 3.76469 24H12.2353C14.3145 24 16 25.6855 16 27.7647L16 36.2353C16 38.3145 14.3145 40 12.2353 40H3.76469C1.68551 40 0 38.3145 0 36.2353V27.7647Z" fill="white"/>
<path d="M48 3.76471C48 1.68552 49.6855 0 51.7647 0L60.2353 8.97576e-07C62.3145 8.97576e-07 64 1.68552 64 3.76471V12.2353C64 14.3145 62.3145 16 60.2353 16H51.7647C49.6855 16 48 14.3145 48 12.2353V3.76471Z" fill="white"/>
<path d="M24 3.76471C24 1.68552 25.6855 0 27.7647 0H36.2353C38.3145 0 40 1.68552 40 3.76471V12.2353C40 14.3145 38.3145 16 36.2353 16H27.7647C25.6855 16 24 14.3145 24 12.2353V3.76471Z" fill="white"/>
<path d="M0 3.76471C0 1.68552 1.68601 0 3.7658 0H12.2342C14.314 0 16 1.68552 16 3.76471V12.2353C16 14.3145 14.314 16 12.2342 16H3.7658C1.68601 16 0 14.3145 0 12.2353V3.76471Z" fill="white"/>
</svg>
