<svg width="64" height="64" viewBox="0 0 64 64" fill="none" xmlns="http://www.w3.org/2000/svg">
<path d="M29.8075 33.6952L33.341 30.1618C34.4053 29.0974 34.9727 28.037 35.0431 26.9805C35.1136 25.924 34.6597 24.9066 33.6814 23.9283C32.8049 23.0518 31.811 22.6136 30.6997 22.6136C29.5962 22.6057 28.5475 23.0753 27.5536 24.0222L23.8441 27.7318L29.8075 33.6952Z" fill="white"/>
<path fill-rule="evenodd" clip-rule="evenodd" d="M6.63751 0C3.06352 0 0.159979 2.88545 0.137639 6.45937L0.000127145 28.4594C-0.0107357 30.1973 0.674862 31.8672 1.90381 33.0962L30.9038 62.0962C33.4422 64.6346 37.5578 64.6346 40.0962 62.0962L62.0962 40.0962C63.3152 38.8772 64 37.2239 64 35.5C64 33.7761 63.3152 32.1228 62.0962 30.9038L33.0962 1.90381C31.8772 0.68482 30.2239 0 28.5 0H6.63751ZM39.6096 35.9374L35.8297 39.7174L38.5414 42.4291L35.5831 45.3874L32.8714 42.6756L30.4649 45.0822L28.0819 42.6991L30.4884 40.2926L29.2323 39.0365L26.8258 41.443L24.4428 39.06L26.8493 36.6535L18.491 28.2953L25.0297 21.7566C26.9158 19.8705 28.9153 18.8571 31.0284 18.7162C33.1336 18.5675 35.0001 19.3071 36.6279 20.9349C38.287 22.594 39.054 24.4331 38.9288 26.4522C38.7957 28.4635 37.7862 30.4357 35.9001 32.3687L32.1905 36.0783L33.4466 37.3344L37.2266 33.5544L39.6096 35.9374ZM12 16C14.7614 16 17 13.7614 17 11C17 8.23858 14.7614 6 12 6C9.23858 6 7 8.23858 7 11C7 13.7614 9.23858 16 12 16Z" fill="white"/>
</svg>
