<svg width="64" height="64" viewBox="0 0 64 64" fill="none" xmlns="http://www.w3.org/2000/svg">
<path d="M39.7639 32L20.2291 2.93029C20.0828 2.65239 20 2.33586 20 2C20 0.895431 20.8954 0 22 0C22.7985 0 23.4876 0.467892 23.8083 1.14445L43.7708 31.0695C43.9119 31.3374 43.994 31.6413 43.9997 31.9639C43.9999 31.9759 44 31.9879 44 32C44 32.0298 43.9993 32.0595 43.998 32.0893C43.9847 32.3918 43.9043 32.6768 43.7712 32.9299L23.8079 62.8563C23.4871 63.5325 22.7982 64 22 64C20.8954 64 20 63.1046 20 62C20 61.6639 20.0829 61.3471 20.2294 61.069L39.7639 32Z" fill="white"/>
</svg>
