<svg width="64" height="64" viewBox="0 0 64 64" fill="none" xmlns="http://www.w3.org/2000/svg">
<path d="M16 24C16 26.7614 18.2386 29 21 29C23.7614 29 26 26.7614 26 24C26 21.2386 23.7614 19 21 19C18.2386 19 16 21.2386 16 24Z" fill="#ACC8A6"/>
<path d="M43 29C45.7614 29 48 26.7614 48 24C48 21.2386 45.7614 19 43 19C40.2386 19 38 21.2386 38 24C38 26.7614 40.2386 29 43 29Z" fill="#ACC8A6"/>
<path d="M41.5 48.1258L41.4875 48.1125L40.864 48.736C39.424 46.4 36 44.8 32 44.8C28 44.8 24.576 46.4 23.136 48.736L22.5125 48.1125L22.5 48.1258L18.1435 44C21.6097 40.3069 26.5354 38 32 38C37.4645 38 42.3903 40.3069 45.8565 44L41.5 48.1258Z" fill="#ACC8A6"/>
<path fill-rule="evenodd" clip-rule="evenodd" d="M64 32C64 49.6731 49.6731 64 32 64C14.3269 64 0 49.6731 0 32C0 14.3269 14.3269 0 32 0C49.6731 0 64 14.3269 64 32ZM58 32C58 46.3594 46.3594 58 32 58C17.6406 58 6 46.3594 6 32C6 17.6406 17.6406 6 32 6C46.3594 6 58 17.6406 58 32Z" fill="#ACC8A6"/>
</svg>
