<svg width="64" height="64" viewBox="0 0 64 64" fill="none" xmlns="http://www.w3.org/2000/svg">
<path d="M12.8399 60.9995C9.53234 60.9999 6.35726 59.6997 3.99997 57.3796L3.73997 57.1196C2.55559 55.9639 1.61451 54.5828 0.972197 53.0577C0.329882 51.5327 -0.000676338 49.8945 0 48.2396C-0.00418561 46.4481 0.347212 44.6735 1.03383 43.0188C1.72045 41.364 2.72864 39.862 3.99997 38.5997L34.9998 8.32858C38.1496 5.04914 42.4614 3.13813 47.0065 3.0072C51.5517 2.87627 55.9664 4.5359 59.2996 7.62859C60.803 9.12817 61.9928 10.912 62.7997 12.8761C63.6066 14.8401 64.0145 16.9452 63.9996 19.0685C63.9818 21.4399 63.4956 23.7844 62.5689 25.9673C61.6422 28.1502 60.2933 30.1284 58.5997 31.7884L30.7398 58.9996C30.5666 59.2325 30.3448 59.425 30.0897 59.5636C29.8347 59.7022 29.5525 59.7837 29.2628 59.8022C28.9731 59.8208 28.6829 59.7762 28.4122 59.6713C28.1415 59.5664 27.8969 59.4039 27.6954 59.195C27.4938 58.9861 27.3402 58.7358 27.2451 58.4616C27.15 58.1873 27.1157 57.8956 27.1447 57.6068C27.1737 57.318 27.2651 57.0389 27.4128 56.789C27.5605 56.5391 27.7608 56.3243 27.9998 56.1596L55.7797 28.9484C57.099 27.6606 58.1509 26.1248 58.8751 24.4294C59.5993 22.7339 59.9814 20.9121 59.9996 19.0685C60.0141 17.473 59.7103 15.8906 59.1059 14.414C58.5015 12.9373 57.6087 11.596 56.4797 10.4686C53.8953 8.11432 50.4901 6.86863 46.9966 6.99955C43.5032 7.13046 40.2007 8.6275 37.7998 11.1686L6.89995 41.4397C5.98937 42.3239 5.26398 43.3805 4.76608 44.548C4.26818 45.7155 4.00775 46.9704 3.99997 48.2396C3.99569 49.3541 4.2127 50.4583 4.63842 51.4883C5.06413 52.5182 5.69007 53.4534 6.47995 54.2396L6.73995 54.4996C8.52944 56.1475 10.8944 57.0268 13.3258 56.9482C15.7572 56.8696 18.0605 55.8395 19.7398 54.0796L46.4397 28.0684C46.9447 27.5579 47.3427 26.9518 47.6106 26.2856C47.8784 25.6194 48.0107 24.9064 47.9997 24.1885C48.0041 23.5649 47.8844 22.9466 47.6474 22.3698C47.4105 21.7929 47.0612 21.269 46.6197 20.8285C45.6097 19.9023 44.276 19.4105 42.9065 19.4591C41.537 19.5077 40.2416 20.093 39.2998 21.0885L20.8999 39.3283C20.5233 39.7023 20.0136 39.9113 19.4829 39.9094C18.9522 39.9076 18.4439 39.6949 18.07 39.3183C17.696 38.9417 17.487 38.432 17.4889 37.9013C17.4907 37.3706 17.7034 36.8623 18.08 36.4884L36.5598 18.1885C38.2538 16.4532 40.562 15.4533 42.9865 15.4047C45.4111 15.356 47.7576 16.2625 49.5197 17.9285C50.3301 18.7535 50.9671 19.7324 51.393 20.8076C51.819 21.8827 52.0252 23.0323 51.9997 24.1885C51.9976 25.4335 51.747 26.6656 51.2628 27.8126C50.7786 28.9596 50.0704 29.9985 49.1797 30.8684L22.5598 56.9596C19.9796 59.5357 16.4859 60.9878 12.8399 60.9995Z" fill="#E60203"/>
</svg>
