<svg width="64" height="64" viewBox="0 0 64 64" fill="none" xmlns="http://www.w3.org/2000/svg">
<g clip-path="url(#clip0)">
<path d="M49.6667 34.6667C49.563 35.5327 49.389 36.3889 49.1467 37.2267C48.3802 39.8373 47.0099 42.2307 45.1467 44.2134L33.6667 55.8134L32.4801 57.0267L31.2801 55.8134L19.8134 44.2H19.9867C18.1236 42.2174 16.7533 39.8239 15.9867 37.2134C15.714 36.2307 15.5222 35.2274 15.4134 34.2134C15.1873 35.1992 15.049 36.2031 15.0001 37.2134C15.0001 37.5467 15.0001 37.8934 15.0001 38.24C14.9881 42.3294 16.4027 46.2949 19.0001 49.4534L20.5067 51.08L32.5067 64L44.7334 50.8267L45.7334 49.7734C48.4888 46.5627 50.0026 42.471 50.0001 38.24C50.0001 37.8934 50.0001 37.5467 50.0001 37.2134C49.9574 36.3569 49.8459 35.5053 49.6667 34.6667Z" fill="#2E7F3C"/>
<path d="M49.56 21.1334V20.9734L47.8267 22.6667L46.8667 23.6267H49.9067C49.8522 22.7883 49.7364 21.9549 49.56 21.1334Z" fill="#2E7F3C"/>
<path d="M44.9466 12.52L43.2266 12.8933L44.7199 14.4L45.6666 15.3467L44.7333 16.28L43.1066 17.9333L42.8933 18.1333L40.9866 20L40.0533 20.9467L25.9066 35.28L25.6666 35.4933L23.7999 33.5867C23.369 33.1464 22.9723 32.674 22.6133 32.1733L33.8133 20.8667L39.8133 14.8267L39.9199 14.72L41.2533 16.0533C41.5686 16.3706 41.8668 16.7044 42.1466 17.0533L43.7999 15.3333L42.3066 13.8267L40.5733 12.0933L42.9999 11.5867L43.8133 11.4133L32.5199 0L20.7999 11.8133L20.4933 12.1067L19.8933 12.7067L19.6133 13.0133C16.6556 16.3083 15.0431 20.5938 15.095 25.0212C15.1468 29.4486 16.8593 33.6952 19.8933 36.92C20.0888 37.1333 20.2888 37.3333 20.4933 37.52L31.1599 48.2933V41.04L29.4133 39.2667L31.4933 37.1733L37.0533 31.5733L38.5599 30.08L43.3333 25.3333L43.8266 24.84L44.7599 23.8933L44.9733 23.68L46.8533 21.7733L48.4933 20.1333L49.0933 19.52L49.4266 19.2L50.3599 20.1467L52.4933 22.2933L54.9999 10.3867L44.9466 12.52ZM32.5199 7.25333L36.1466 10.9067L34.6799 12.3867L20.3333 26.8C20.2149 26.14 20.1568 25.4705 20.1599 24.8C20.1639 21.5011 21.4724 18.3377 23.7999 16L32.5199 7.25333Z" fill="#2E7F3C"/>
<path d="M37.04 41.7732V37.8398H37H32.52V42.3732V49.6265L37.04 45.0665V41.7732Z" fill="#2E7F3C"/>
<path d="M42.9333 31.8667V31.4133H42.92H38.4133V36.4267V41.3333V43.6933L42.9333 39.1333V38.88V31.8667Z" fill="#2E7F3C"/>
<path d="M44.6533 24.9733V37.3999C44.8133 37.2577 44.9733 37.0977 45.1333 36.9199C48.2067 33.6784 49.9281 29.3868 49.9466 24.9199H44.6133L44.6533 24.9733Z" fill="#2E7F3C"/>
</g>
<defs>
<clipPath id="clip0">
<rect width="64" height="64" fill="white"/>
</clipPath>
</defs>
</svg>
