<svg width="64" height="64" viewBox="0 0 64 64" fill="none" xmlns="http://www.w3.org/2000/svg">
<path d="M25.8887 17.8538C27.6977 16.6451 29.8244 16 32 16C34.9174 16 37.7153 17.1589 39.7782 19.2218C41.8411 21.2847 43 24.0826 43 27C43 29.1756 42.3549 31.3023 41.1462 33.1113C39.9375 34.9202 38.2195 36.3301 36.2095 37.1627C34.1995 37.9952 31.9878 38.2131 29.854 37.7886C27.7202 37.3642 25.7602 36.3165 24.2218 34.7782C22.6835 33.2398 21.6358 31.2798 21.2114 29.146C20.7869 27.0122 21.0048 24.8005 21.8373 22.7905C22.6699 20.7805 24.0798 19.0625 25.8887 17.8538Z" fill="#2E7F3C"/>
<path fill-rule="evenodd" clip-rule="evenodd" d="M32 64C49.6731 64 64 49.6731 64 32C64 14.3269 49.6731 0 32 0C14.3269 0 0 14.3269 0 32C0 49.6731 14.3269 64 32 64ZM49.9807 52.1422C55.5156 47.1978 59 40.0058 59 32C59 17.0883 46.9117 5 32 5C17.0883 5 5 17.0883 5 32C5 40.0058 8.48436 47.1978 14.0193 52.1422C14.0065 51.9298 14 51.7157 14 51.5C14 45.701 18.701 41 24.5 41H39.5C45.299 41 50 45.701 50 51.5C50 51.7157 49.9935 51.9298 49.9807 52.1422ZM32.1511 58.9996C32.1002 58.9497 32.0499 58.8993 32 58.8485C31.9501 58.8993 31.8998 58.9497 31.8489 58.9996L31.9244 58.9999L32 59L32.0797 58.9999L32.1511 58.9996Z" fill="#2E7F3C"/>
</svg>
