<svg width="64" height="64" viewBox="0 0 64 64" fill="none" xmlns="http://www.w3.org/2000/svg">
<path d="M52 6H40.46C39.2 2.52 35.9 0 32 0C28.1 0 24.8 2.52 23.54 6H12C10.4087 6 8.88258 6.63214 7.75736 7.75736C6.63214 8.88258 6 10.4087 6 12V58C6 59.5913 6.63214 61.1174 7.75736 62.2426C8.88258 63.3679 10.4087 64 12 64H52C53.5913 64 55.1174 63.3679 56.2426 62.2426C57.3679 61.1174 58 59.5913 58 58V12C58 10.4087 57.3679 8.88258 56.2426 7.75736C55.1174 6.63214 53.5913 6 52 6ZM32 6C32.7957 6 33.5587 6.31607 34.1213 6.87868C34.6839 7.44129 35 8.20435 35 9C35 9.79565 34.6839 10.5587 34.1213 11.1213C33.5587 11.6839 32.7957 12 32 12C31.2044 12 30.4413 11.6839 29.8787 11.1213C29.3161 10.5587 29 9.79565 29 9C29 8.20435 29.3161 7.44129 29.8787 6.87868C30.4413 6.31607 31.2044 6 32 6ZM17 18H47V12H52V58H12V12H17V18ZM18.5 39.5L23 35L29 41L42.5 27.5L47 32L29 50L18.5 39.5Z" fill="#2E7F3C"/>
</svg>
