<svg width="64" height="64" viewBox="0 0 64 64" fill="none" xmlns="http://www.w3.org/2000/svg">
<path fill-rule="evenodd" clip-rule="evenodd" d="M38.0033 40.4333C33.9757 43.9026 28.7328 46 23 46C10.2975 46 0 35.7025 0 23C0 10.2975 10.2975 0 23 0C35.7025 0 46 10.2975 46 23C46 28.7328 43.9026 33.9757 40.4333 38.0033L42.43 40H45.5L64 58.5L58.5 64L40 45.5V42.43L38.0033 40.4333ZM39 23C39 31.8366 31.8366 39 23 39C14.1634 39 7 31.8366 7 23C7 14.1634 14.1634 7 23 7C31.8366 7 39 14.1634 39 23Z" fill="white"/>
</svg>
