<svg width="64" height="64" viewBox="0 0 64 64" fill="none" xmlns="http://www.w3.org/2000/svg">
<path fill-rule="evenodd" clip-rule="evenodd" d="M44.62 14.38H44.8L51 13L49.59 19.21V19.36L49.36 20.36L49 22L47.26 20.29L46.55 21L42.95 24.58L42.52 25L37.52 30L36 31.53L31.52 35.95L30.94 36.53L30 37.53L29.17 38.36L29.88 39.06L30 39.18V46.25L25.67 41.86L22.13 38.33L21.42 37.62C21.2 37.44 20.98 37.24 20.77 37.03L20.59 36.85C20.1513 36.4058 19.7406 35.9349 19.36 35.44C16.9709 32.3625 15.7869 28.519 16.0299 24.6306C16.2729 20.7422 17.9263 17.0761 20.68 14.32L32 3L42.78 13.78L41.78 14L40.49 14.31L40 14.42L42.31 16.73L40.49 18.56L40.13 18.21L39.78 17.85L38.37 16.44L38.24 16.56L22.81 32L24.32 33.51L24.93 34.11L25.64 34.82L41.06 19.4L41.2 19.27L43 17.42L43.71 16.71L42 15L43.62 14.6L44.62 14.38ZM21.6464 21.9101C21.0984 23.4366 20.8947 25.0655 21.05 26.68L34.83 12.9L32 10.07L24.22 17.85C23.0733 18.9971 22.1945 20.3835 21.6464 21.9101Z" fill="#2E7F3C"/>
<path d="M32 55L43.32 43.68C45.5894 41.4078 47.1225 38.5053 47.72 35.35C47.9053 36.3393 47.999 37.3435 48 38.35V39C47.8488 43.0242 46.1762 46.8411 43.32 49.68L32 61L20.66 49.69C17.8158 46.853 16.1509 43.0444 16 39.03V38.38C16.001 37.3735 16.0947 36.3693 16.28 35.38C16.8831 38.5246 18.4159 41.4159 20.68 43.68L32 55Z" fill="#2E7F3C"/>
<path d="M47.46 21.48L47.26 21.68L45.44 23.51L43.94 25H47.94C47.9082 23.9897 47.7776 22.9849 47.55 22C47.55 21.8637 47.5178 21.7274 47.4845 21.5859L47.4841 21.5844C47.476 21.5499 47.4678 21.5151 47.46 21.48Z" fill="#2E7F3C"/>
<path d="M36 37V44.25L32 48.25L31 47.25V37H36Z" fill="#2E7F3C"/>
<path d="M37 31V43.25L42 38.25V31H37Z" fill="#2E7F3C"/>
<path d="M43.08 37.17L43 37.24V26H48C47.9056 30.0688 46.2643 33.9487 43.41 36.85L43.23 37.03L43.08 37.17Z" fill="#2E7F3C"/>
</svg>
